<?xml version="1.0" standalone="no"?>
<!DOCTYPE svg PUBLIC "-//W3C//DTD SVG 20010904//EN"
 "http://www.w3.org/TR/2001/REC-SVG-20010904/DTD/svg10.dtd">
<svg version="1.0" xmlns="http://www.w3.org/2000/svg"
 width="512.000000pt" height="512.000000pt" viewBox="0 0 512.000000 512.000000"
 preserveAspectRatio="xMidYMid meet">
<metadata>
Created by potrace 1.11, written by Peter Selinger 2001-2013
</metadata>
<g transform="translate(0.000000,512.000000) scale(0.100000,-0.100000)"
fill="#000000" stroke="none">
<path d="M2275 4784 c-388 -52 -740 -195 -1050 -424 -505 -374 -830 -945 -896
-1569 -15 -143 -6 -461 16 -591 166 -984 945 -1737 1928 -1865 152 -19 422
-19 574 0 747 97 1404 568 1728 1240 154 319 225 630 225 985 0 361 -72 672
-232 997 -293 597 -874 1053 -1518 1192 -239 51 -554 65 -775 35z m592 -130
c842 -125 1532 -745 1742 -1567 46 -180 64 -329 64 -532 -1 -200 -17 -330 -63
-516 -168 -675 -675 -1233 -1340 -1472 -369 -134 -805 -157 -1200 -66 -209 48
-485 167 -665 286 -516 341 -854 871 -941 1479 -23 159 -23 429 0 588 52 361
185 682 410 986 92 124 295 326 423 419 316 231 688 374 1069 410 128 12 367
5 501 -15z"/>
<path d="M2355 3664 c-468 -84 -854 -447 -931 -874 -18 -101 -18 -317 1 -424
69 -394 371 -742 757 -870 195 -65 492 -74 693 -22 103 27 269 101 353 157 77
52 181 140 203 171 l21 29 -97 129 -97 130 -88 -84 c-100 -97 -211 -166 -321
-201 -416 -132 -870 49 -1049 418 -56 116 -73 199 -73 337 3 379 240 679 611
772 122 31 341 31 457 0 109 -30 246 -99 327 -166 37 -31 71 -56 76 -56 4 0
30 26 57 58 27 31 72 83 99 115 l49 58 -34 35 c-73 76 -259 189 -395 240 -160
60 -434 81 -619 48z"/>
<path d="M2490 3157 l0 -43 -59 -12 c-117 -24 -219 -101 -269 -202 -22 -45
-27 -68 -26 -130 0 -111 43 -180 139 -228 46 -22 130 -42 180 -42 l35 0 0
-161 0 -162 -45 6 c-61 9 -138 49 -196 104 -54 51 -59 50 -123 -16 l-39 -40
27 -35 c33 -43 135 -118 200 -146 27 -11 77 -26 112 -32 l64 -13 0 -42 0 -43
70 0 70 0 0 48 0 48 58 12 c187 39 305 166 306 327 0 179 -101 281 -298 301
l-66 7 0 138 c0 77 4 139 9 139 25 0 100 -35 154 -70 l60 -40 36 42 c68 79 68
72 9 119 -61 49 -130 82 -208 102 l-55 14 -3 47 -3 46 -70 0 -69 0 0 -43z m0
-351 l0 -143 -49 8 c-90 14 -131 50 -131 117 0 56 69 130 140 150 19 6 36 11
38 11 1 1 2 -64 2 -143z m255 -335 c22 -10 48 -27 58 -39 21 -23 33 -88 23
-126 -14 -56 -87 -114 -163 -131 l-33 -7 0 161 0 161 38 0 c20 0 55 -9 77 -19z"/>
</g>
</svg>
